<svg width="33" height="33" viewBox="0 0 32 32" fill="none" xmlns="http://www.w3.org/2000/svg">
<g id="bx:cool">
<path id="Vector" d="M20.3484 20.5693C19.7914 21.1245 19.1335 21.5683 18.4101 21.8768C17.1077 22.4266 15.6547 22.5069 14.2997 22.1038C12.9447 21.7008 11.7717 20.8395 10.9816 19.6672L8.45508 21.3724C9.11403 22.3448 9.95237 23.1826 10.9252 23.841C11.9151 24.5104 13.0274 24.978 14.1983 25.217C16.0101 25.5858 17.8911 25.3999 19.5956 24.6836C20.6805 24.2232 21.6669 23.559 22.5016 22.727C22.916 22.3141 23.2939 21.8569 23.62 21.3724L21.0936 19.6672C20.8736 19.9903 20.6242 20.2923 20.3484 20.5693Z" fill="url(#paint0_linear_3_90)"/>
<g id="Vector_2">
<path fill-rule="evenodd" clip-rule="evenodd" d="M1.02197 16.26C1.02197 7.85771 7.85778 1.0219 16.2601 1.0219C24.6624 1.0219 31.4982 7.85771 31.4982 16.26C31.4982 24.6623 24.6624 31.4981 16.2601 31.4981C7.85778 31.4981 1.02197 24.6623 1.02197 16.26ZM26.8018 10.1648C24.6883 6.52743 20.7599 4.06952 16.2601 4.06952C11.7603 4.06952 7.83188 6.52743 5.71835 10.1648C5.67259 10.2479 5.62842 10.3275 5.58567 10.4046C5.11304 11.2568 4.81461 11.7949 4.47188 13.2124C4.21892 14.1891 4.06959 15.207 4.06959 16.26C4.06959 22.9815 9.53854 28.4505 16.2601 28.4505C22.9816 28.4505 28.4505 22.9815 28.4505 16.26C28.4505 15.207 28.3012 14.1891 28.0483 13.2124C28.0483 12.5 27.1667 10.5 26.8018 10.1648Z" fill="url(#paint1_linear_3_90)"/>
<path d="M26.8018 10.1648H5.71835C5.67259 10.2479 5.62842 10.3275 5.58567 10.4046C5.11304 11.2568 4.81461 11.7949 4.47188 13.2124H5.5934V14.7362C5.5934 15.5445 5.91449 16.3196 6.48603 16.8912C7.05757 17.4627 7.83274 17.7838 8.64102 17.7838H11.6886C12.4969 17.7838 13.2721 17.4627 13.8436 16.8912C14.4152 16.3196 14.7363 15.5445 14.7363 14.7362H17.7839C17.7839 15.5445 18.105 16.3196 18.6765 16.8912C19.248 17.4627 20.0232 17.7838 20.8315 17.7838H23.8791C24.6874 17.7838 25.4626 17.4627 26.0341 16.8912C26.6056 16.3196 26.9267 15.5445 26.9267 14.7362V13.2124H28.0483C28.0483 12.5 27.1667 10.5 26.8018 10.1648Z" fill="url(#paint2_linear_3_90)"/>
</g>
</g>
<defs>
<linearGradient id="paint0_linear_3_90" x1="16.0376" y1="19.6672" x2="16.0376" y2="25.4018" gradientUnits="userSpaceOnUse">
<stop stop-color="#F8CB2F"/>
<stop offset="1" stop-color="#ECB14E"/>
</linearGradient>
<linearGradient id="paint1_linear_3_90" x1="16.5" y1="-4.83333" x2="16.5" y2="37.8333" gradientUnits="userSpaceOnUse">
<stop stop-color="#FFDB1F"/>
<stop offset="1" stop-color="#E3983F" stop-opacity="0.86"/>
</linearGradient>
<linearGradient id="paint2_linear_3_90" x1="26.5" y1="34.5" x2="3.16667" y2="-4.83333" gradientUnits="userSpaceOnUse">
<stop offset="0.145833" stop-color="#4021FF"/>
<stop offset="0.476906" stop-color="#D2425C" stop-opacity="0.84"/>
<stop offset="0.838542" stop-color="#4021FF"/>
</linearGradient>
</defs>
</svg>
